# xmcd CD database file
#
# Track frame offsets:
#	150
#	13599
#	30170
#	41625
#	60835
#	74935
#	89059
#	104838
#	119874
#	134682
#
# Disc length: 1954 seconds
#
# Revision: 0
# Processed by: cddbd v1.5.2PL0 Copyright (c) Steve Scherf et al.
# Submitted via: CDex 1.70beta2
#
DISCID=9807a00a
DTITLE=Danny Roberts - Both Hands On The Wheel
DYEAR=2008
DGENRE=Country
TTITLE0=Nasty Bad Boy
TTITLE1=Break Night
TTITLE2=Devil In The Bottle
TTITLE3=Time On My Hands
TTITLE4=Lonely Heart
TTITLE5=Barroom Women
TTITLE6=Both Hands On The Wheel
TTITLE7=City Lights
TTITLE8=Good Old Days
TTITLE9=I'm Movin' On
EXTD=YEAR: 2008
EXTT0=
EXTT1=
EXTT2=
EXTT3=
EXTT4=
EXTT5=
EXTT6=
EXTT7=
EXTT8=
EXTT9=
PLAYORDER=
